<?xml version="1.0" standalone="no"?>
<!DOCTYPE svg PUBLIC "-//W3C//DTD SVG 20010904//EN"
 "http://www.w3.org/TR/2001/REC-SVG-20010904/DTD/svg10.dtd">
<svg version="1.0" xmlns="http://www.w3.org/2000/svg"
 width="600.000000pt" height="600.000000pt" viewBox="0 0 600.000000 600.000000"
 preserveAspectRatio="xMidYMid meet">
<metadata>
Created by potrace 1.14, written by Peter Selinger 2001-2017
</metadata>
<g transform="translate(0.000000,600.000000) scale(0.100000,-0.100000)"
fill="#000000" stroke="none">
<path d="M1456 4712 c-2 -4 -59 -154 -126 -332 -66 -179 -127 -341 -135 -360
-7 -19 -43 -114 -79 -210 -106 -287 -301 -811 -516 -1385 -111 -297 -238 -637
-282 -755 -43 -118 -95 -254 -113 -302 l-34 -88 2093 0 2092 0 86 203 c48 111
310 724 583 1362 272 638 500 1169 505 1180 5 11 74 172 154 358 l144 337
-2183 0 c-1201 0 -2186 -4 -2189 -8z m4176 -111 c13 -1 -7 -54 -94 -258 -60
-142 -118 -276 -128 -298 -9 -22 -63 -148 -119 -280 -57 -132 -111 -258 -120
-280 -10 -22 -51 -116 -91 -210 -40 -93 -80 -188 -90 -210 -10 -22 -43 -101
-75 -175 -31 -74 -63 -148 -70 -165 -8 -16 -39 -91 -71 -165 -31 -74 -67 -157
-79 -185 -13 -27 -46 -106 -75 -175 -29 -69 -60 -143 -70 -165 -10 -22 -75
-174 -145 -337 -91 -214 -132 -298 -144 -299 -21 -1 -3858 -1 -3893 0 l-26 1
40 103 c22 56 43 113 48 127 9 30 238 643 280 750 16 41 52 138 80 215 28 77
55 149 60 160 5 11 41 108 80 215 39 107 75 204 80 215 5 11 39 101 75 200
104 280 435 1167 446 1195 l9 25 2038 -2 c1120 -1 2044 -2 2054 -2z"/>
<path d="M1825 3703 c3 -32 10 -85 15 -118 16 -107 19 -129 25 -180 3 -27 8
-61 10 -75 3 -14 7 -47 10 -75 4 -27 8 -57 10 -65 2 -8 7 -42 11 -75 3 -33 8
-68 10 -78 1 -10 10 -70 19 -135 8 -64 18 -134 21 -154 3 -21 6 -50 8 -65 7
-48 22 -161 31 -223 2 -14 11 -79 20 -145 23 -179 11 -161 109 -160 63 0 89 4
99 15 8 8 36 56 62 105 26 50 51 95 55 100 4 6 26 46 50 90 23 44 92 170 153
280 121 220 136 248 192 350 21 39 55 101 76 138 22 38 39 70 39 71 0 12 109
195 113 189 2 -4 8 -35 13 -68 4 -33 8 -62 9 -65 0 -3 5 -31 9 -64 4 -32 9
-68 11 -80 2 -11 9 -57 15 -101 6 -44 13 -91 15 -105 11 -70 37 -249 40 -275
6 -42 16 -114 20 -134 2 -10 6 -42 10 -72 3 -30 10 -79 15 -109 6 -30 12 -73
15 -95 2 -22 7 -58 10 -80 4 -22 7 -47 8 -55 5 -31 17 -36 102 -35 l86 0 38
70 c69 129 268 499 310 578 93 174 124 232 131 242 4 6 36 64 70 130 35 66 75
143 90 170 132 244 220 408 220 412 0 2 -39 2 -87 1 l-87 -3 -83 -155 c-46
-85 -107 -197 -134 -249 -28 -51 -59 -107 -68 -125 -10 -17 -37 -67 -61 -111
-24 -44 -82 -152 -130 -240 -48 -88 -126 -233 -175 -323 -48 -90 -89 -161 -91
-159 -2 2 -9 39 -14 83 -6 43 -13 90 -15 104 -2 14 -7 48 -10 75 -3 28 -10 75
-15 105 -11 65 -18 116 -25 185 -3 28 -8 57 -10 65 -2 8 -7 40 -10 70 -3 30
-8 62 -10 70 -2 8 -7 38 -10 65 -3 28 -10 75 -15 105 -5 30 -12 80 -16 110 -7
66 -10 82 -18 138 -3 23 -9 61 -12 85 -3 23 -8 49 -9 57 -2 8 -4 23 -4 33 -1
15 -12 17 -83 17 l-83 -1 -150 -276 c-82 -152 -168 -311 -191 -352 -22 -42
-95 -175 -161 -296 -156 -286 -204 -374 -221 -407 -20 -41 -32 -43 -33 -6 0
18 -2 41 -4 50 -3 19 -8 51 -25 178 -6 47 -13 96 -15 110 -4 23 -7 47 -20 148
-4 35 -18 133 -29 212 -9 62 -27 194 -32 225 -2 17 -10 77 -19 135 -8 58 -17
125 -20 150 -3 25 -8 54 -10 65 -2 11 -4 30 -4 43 -1 21 -5 22 -87 22 l-86 0
7 -57z"/>
</g>
</svg>
